<!DOCTYPE svg PUBLIC "-//W3C//DTD SVG 20010904//EN" "http://www.w3.org/TR/2001/REC-SVG-20010904/DTD/svg10.dtd">
<svg version="1.0" xmlns="http://www.w3.org/2000/svg" width="1200px" height="1000px" viewBox="0 0 12000 10000" preserveAspectRatio="xMidYMid meet">
<g id="layer101" fill="#000000" stroke="none">
 <path d="M5935 8714 c-22 -2 -114 -11 -205 -20 -560 -53 -1140 -202 -1670 -429 -1213 -518 -2228 -1477 -2824 -2665 -266 -531 -453 -1118 -535 -1685 -47 -324 -55 -445 -56 -840 0 -387 7 -510 46 -789 18 -136 20 -140 61 -195 146 -193 405 -410 725 -607 124 -77 353 -199 416 -223 l24 -10 -17 37 c-43 90 -151 419 -195 592 -107 425 -152 841 -142 1295 6 239 29 512 45 526 4 3 165 20 357 38 310 29 714 67 1390 131 232 22 660 62 915 85 91 9 177 17 193 19 15 1 27 1 27 -1 0 -2 -20 -50 -44 -106 -123 -284 -173 -556 -163 -872 8 -266 67 -532 165 -748 l31 -67 48 19 c26 10 222 83 434 161 l386 143 -44 93 c-24 51 -56 137 -70 191 -23 87 -26 116 -26 268 0 151 3 181 25 266 52 193 136 348 268 491 156 171 399 301 630 338 95 15 276 12 367 -5 424 -81 772 -405 873 -815 6 -25 13 -50 15 -57 3 -8 27 -4 82 17 159 58 788 292 790 293 6 7 -73 223 -118 322 -99 217 -232 408 -404 581 -301 302 -664 490 -1105 571 -139 25 -526 25 -665 -1 -400 -74 -718 -227 -1020 -492 -53 -46 -100 -84 -104 -84 -8 0 -389 -35 -866 -80 -491 -47 -1120 -106 -1592 -150 -236 -22 -485 -46 -555 -53 -149 -15 -139 -25 -104 108 149 557 429 1127 785 1600 263 350 614 701 956 955 729 542 1583 862 2488 931 223 17 714 6 912 -20 946 -124 1719 -456 2465 -1060 150 -121 527 -502 651 -657 351 -442 618 -913 785 -1389 23 -65 46 -121 51 -122 6 -2 38 32 71 76 178 229 347 583 437 915 l26 95 -35 68 c-136 272 -437 722 -655 983 -515 616 -1170 1129 -1872 1469 -614 297 -1211 467 -1919 547 -136 15 -825 28 -935 18z"/>
 <path d="M6180 3536 c-85 -18 -168 -65 -235 -131 -236 -236 -173 -640 124 -788 90 -45 166 -61 261 -54 189 13 356 133 426 306 36 88 44 221 19 307 -77 267 -327 418 -595 360z"/>
 </g>

</svg>